HIERARCHY
ROOT Hips
{
	OFFSET 0.000000 0.000000 0.000000
	CHANNELS 6 Xposition Yposition Zposition Xrotation Yrotation Zrotation
	JOINT LeftUpLeg_virtual
	{
		OFFSET 0.000000 0.000000 0.000000
		CHANNELS 3 Xrotation Yrotation Zrotation
		JOINT LeftUpLeg
		{
			OFFSET 10.205400 -3.823500 0.155100
			CHANNELS 3 Xrotation Yrotation Zrotation
			JOINT LeftLeg
			{
				OFFSET 0.708757 -12.982077 0.567790
				CHANNELS 3 Xrotation Yrotation Zrotation
				JOINT LeftFoot
				{
					OFFSET -0.708756 -10.717838 -2.184338
					CHANNELS 3 Xrotation Yrotation Zrotation
					JOINT LeftToeBase
					{
						OFFSET 0.108149 -7.191104 7.560241
						CHANNELS 3 Xrotation Yrotation Zrotation
						JOINT LeftToe_End
						{
							OFFSET 0.070230 0.081724 4.490308
							CHANNELS 3 Xrotation Yrotation Zrotation
							End Site
							{
								OFFSET 0 0 0
							}
						}
					}
				}
			}
		}
	}
	JOINT RightUpLeg_virtual
	{
		OFFSET 0.000000 0.000000 0.000000
		CHANNELS 3 Xrotation Yrotation Zrotation
		JOINT RightUpLeg
		{
			OFFSET -10.205400 -3.823500 0.005500
			CHANNELS 3 Xrotation Yrotation Zrotation
			JOINT RightLeg
			{
				OFFSET -0.708756 -12.982134 0.610632
				CHANNELS 3 Xrotation Yrotation Zrotation
				JOINT RightFoot
				{
					OFFSET 0.708754 -10.717769 -1.945823
					CHANNELS 3 Xrotation Yrotation Zrotation
					JOINT RightToeBase
					{
						OFFSET -0.108140 -7.191069 7.372968
						CHANNELS 3 Xrotation Yrotation Zrotation
						JOINT RightToe_End
						{
							OFFSET -0.070227 0.081735 4.479403
							CHANNELS 3 Xrotation Yrotation Zrotation
							End Site
							{
								OFFSET 0 0 0
							}
						}
					}
				}
			}
		}
	}
	JOINT Spine_virtual
	{
		OFFSET 0.000000 0.000000 0.000000
		CHANNELS 3 Xrotation Yrotation Zrotation
		JOINT Spine
		{
			OFFSET 0.000000 6.876099 0.125700
			CHANNELS 3 Xrotation Yrotation Zrotation
			JOINT Spine1
			{
				OFFSET 0.000000 5.730043 0.104720
				CHANNELS 3 Xrotation Yrotation Zrotation
				JOINT Spine1_split
				{
					OFFSET 0.000000 5.730043 0.104720
					CHANNELS 3 Xrotation Yrotation Zrotation
					JOINT Spine2
					{
						OFFSET 0.000000 5.730043 0.104720
						CHANNELS 3 Xrotation Yrotation Zrotation
						JOINT Neck_virtual
						{
							OFFSET 0.000000 0.000000 0.000000
							CHANNELS 3 Xrotation Yrotation Zrotation
							JOINT Neck
							{
								OFFSET 0.000000 10.314075 0.188496
								CHANNELS 3 Xrotation Yrotation Zrotation
								JOINT Head
								{
									OFFSET 0.000000 7.643700 -2.377400
									CHANNELS 3 Xrotation Yrotation Zrotation
									JOINT HeadTop_End
									{
										OFFSET 0.000000 43.788605 -13.619600
										CHANNELS 3 Xrotation Yrotation Zrotation
										End Site
										{
											OFFSET 0 0 0
										}
									}
								}
							}
						}
						JOINT LeftShoulder_virtual
						{
							OFFSET 0.000000 0.000000 0.000000
							CHANNELS 3 Xrotation Yrotation Zrotation
							JOINT LeftShoulder
							{
								OFFSET 2.196100 4.412489 0.087492
								CHANNELS 3 Xrotation Yrotation Zrotation
								JOINT LeftShoulder_split
								{
									OFFSET 2.196100 4.412489 0.087492
									CHANNELS 3 Xrotation Yrotation Zrotation
									JOINT LeftArm
									{
										OFFSET 8.771219 -2.981674 -0.026999
										CHANNELS 3 Xrotation Yrotation Zrotation
										JOINT LeftForeArm
										{
											OFFSET 8.512804 0.000000 -0.000000
											CHANNELS 3 Xrotation Yrotation Zrotation
											JOINT LeftHand
											{
												OFFSET 18.484802 0.000000 -0.000000
												CHANNELS 3 Xrotation Yrotation Zrotation
												End Site
												{
													OFFSET 0 0 0
												}
											}
										}
									}
								}
							}
						}
						JOINT RightShoulder_virtual
						{
							OFFSET 0.000000 0.000000 0.000000
							CHANNELS 3 Xrotation Yrotation Zrotation
							JOINT RightShoulder
							{
								OFFSET -2.196100 4.412496 0.070690
								CHANNELS 3 Xrotation Yrotation Zrotation
								JOINT RightShoulder_split
								{
									OFFSET -2.196100 4.412496 0.070690
									CHANNELS 3 Xrotation Yrotation Zrotation
									JOINT RightArm
									{
										OFFSET -8.771282 -2.981682 -0.094208
										CHANNELS 3 Xrotation Yrotation Zrotation
										JOINT RightForeArm
										{
											OFFSET -8.494598 0.000000 0.000000
											CHANNELS 3 Xrotation Yrotation Zrotation
											JOINT RightHand
											{
												OFFSET -18.483803 0.000000 0.000001
												CHANNELS 3 Xrotation Yrotation Zrotation
												End Site
												{
													OFFSET 0 0 0
												}
											}
										}
									}
								}
							}
						}
					}
				}
			}
		}
	}
}
MOTION
Frames: 8
Frame Time: 0.03333333
1.882351 35.392094 -4.778608 0.000000 0.000000 0.000000 -0.715807 9.001573 -2.034056 -11.165529 19.995196 13.279056 13.406896 1.753340 3.264086 -2.181261 2.517898 -21.299306 -2.197523 -3.333684 1.065715 0.000000 0.000000 0.000000 -0.217499 8.966320 -2.163830 15.203629 -8.224011 3.179821 -6.718005 -1.603866 1.375378 -13.830799 -8.970617 12.047119 -1.866518 -0.404308 -8.983481 0.000000 0.000000 0.000000 -0.776558 11.368403 -2.358946 2.836969 -0.692158 3.959054 -0.338712 0.615703 1.916832 0.130800 -0.069065 -0.048706 0.000000 0.000000 0.000000 0.281564 3.250808 1.632742 12.637598 2.660393 1.762225 -9.693742 -18.898708 -14.219783 0.000000 0.000000 0.000000 -0.546075 1.480621 0.995231 -1.386059 -17.468713 -14.889823 -0.550740 -0.152083 -3.774023 13.900232 -22.427377 -64.943139 -0.058211 -6.139935 1.926867 0.000000 0.000000 0.000000 0.594991 2.093176 1.740380 0.127724 9.254520 14.983690 -1.930666 0.673791 1.027820 12.166771 26.997673 58.356938 -6.489324 2.715690 1.781929 0.000000 0.000000 0.000000 
1.889591 35.390640 -4.760902 0.000000 0.000000 0.000000 -0.757383 8.856092 -2.051568 -11.083574 19.964149 13.269776 13.488967 1.780969 3.252236 -2.218536 2.640078 -21.260608 -2.202824 -3.343395 1.065981 0.000000 0.000000 0.000000 -0.237480 8.904683 -2.171500 15.257850 -8.168755 3.192474 -6.763280 -1.560283 1.355930 -13.755567 -9.090668 12.010256 -1.655588 -0.437835 -8.869543 0.000000 0.000000 0.000000 -0.852788 11.257092 -2.382004 2.881057 -0.711240 3.950418 -0.333171 0.606561 1.926358 0.134383 -0.071594 -0.052163 0.000000 0.000000 0.000000 0.272712 3.249436 1.642470 12.625331 2.666401 1.779050 -9.666335 -18.891391 -14.153384 0.000000 0.000000 0.000000 -0.536770 1.471256 1.006916 -1.384399 -17.507221 -14.905575 -0.591258 -0.201743 -3.744443 13.855679 -22.416165 -64.946828 -0.097226 -6.226004 1.903337 0.000000 0.000000 0.000000 0.585886 2.080370 1.747461 0.117597 9.173711 14.975094 -1.932865 0.686314 1.083890 12.299447 26.969702 58.242041 -6.474855 2.649578 1.806576 0.000000 0.000000 0.000000 
1.894050 35.382980 -4.746231 0.000000 0.000000 0.000000 -0.843593 8.590516 -2.082033 -10.928190 19.968502 13.307439 13.636339 1.839551 3.252000 -2.351707 2.876569 -21.254804 -2.246446 -3.353655 1.047839 0.000000 0.000000 0.000000 -0.308383 8.716928 -2.190298 15.237923 -8.067496 3.200525 -6.706469 -1.389547 1.342506 -13.664246 -9.280045 12.061513 -1.387455 -0.453407 -8.991877 0.000000 0.000000 0.000000 -0.961580 11.063287 -2.421015 2.951500 -0.723057 3.946676 -0.325277 0.584257 1.942323 0.136706 -0.068550 -0.059415 0.000000 0.000000 0.000000 0.265337 3.235444 1.651026 12.615384 2.688709 1.819165 -9.690094 -18.846684 -14.036395 0.000000 0.000000 0.000000 -0.524643 1.446849 1.026182 -1.380733 -17.526180 -14.885549 -0.621235 -0.238979 -3.765150 13.788817 -22.358617 -64.952852 -0.053101 -6.260820 1.930937 0.000000 0.000000 0.000000 0.572784 2.051960 1.757362 0.128108 9.127227 14.965305 -2.002439 0.750837 1.174756 12.603475 26.965454 58.008353 -6.444757 2.601402 1.815769 0.000000 0.000000 0.000000 
1.889704 35.371414 -4.732958 0.000000 0.000000 0.000000 -0.975175 8.234210 -2.118789 -10.726842 20.000066 13.371904 13.825334 1.921862 3.256385 -2.553629 3.203291 -21.277653 -2.312420 -3.363671 1.022039 0.000000 0.000000 0.000000 -0.417320 8.428799 -2.214456 15.170794 -7.927708 3.214657 -6.582922 -1.101681 1.327374 -13.606136 -9.516910 12.162407 -1.041408 -0.451565 -9.333431 0.000000 0.000000 0.000000 -1.101126 10.823166 -2.468222 3.042588 -0.722628 3.946523 -0.317185 0.552643 1.961050 0.136609 -0.058170 -0.061970 0.000000 0.000000 0.000000 0.260552 3.210122 1.655792 12.601204 2.722883 1.890462 -9.763711 -18.779950 -13.856117 0.000000 0.000000 0.000000 -0.511247 1.410629 1.048071 -1.378320 -17.529629 -14.831360 -0.667827 -0.242230 -3.826211 13.723735 -22.222644 -64.968732 0.056409 -6.237367 2.000888 0.000000 0.000000 0.000000 0.557348 2.010929 1.768331 0.155077 9.128122 14.944509 -2.084114 0.853200 1.276739 13.058699 27.049226 57.675087 -6.390521 2.568769 1.796237 0.000000 0.000000 0.000000 
1.880267 35.356133 -4.725555 0.000000 0.000000 0.000000 -1.135194 7.828957 -2.156688 -10.491844 20.044959 13.434192 14.030875 2.026827 3.260986 -2.784486 3.593613 -21.315550 -2.371590 -3.373731 0.992054 0.000000 0.000000 0.000000 -0.559331 8.074236 -2.239474 15.068897 -7.758831 3.233638 -6.415855 -0.718852 1.300682 -13.604959 -9.793947 12.263217 -0.612187 -0.442639 -9.850915 0.000000 0.000000 0.000000 -1.270289 10.541966 -2.514309 3.150555 -0.705593 3.948168 -0.306458 0.518272 1.978330 0.132957 -0.049445 -0.058261 0.000000 0.000000 0.000000 0.256353 3.177773 1.651994 12.575860 2.757940 2.003834 -9.867116 -18.739765 -13.603058 0.000000 0.000000 0.000000 -0.498369 1.365034 1.068520 -1.378992 -17.525909 -14.743373 -0.716290 -0.227499 -3.912893 13.670276 -21.995960 -64.984742 0.206278 -6.191103 2.096697 0.000000 0.000000 0.000000 0.542968 1.962184 1.776443 0.196535 9.187791 14.895642 -2.178218 0.940230 1.377656 13.654195 27.269798 57.235534 -6.304515 2.581141 1.734417 0.000000 0.000000 0.000000 
1.868427 35.340530 -4.729279 0.000000 0.000000 0.000000 -1.304619 7.412397 -2.186715 -10.239972 20.085290 13.474510 14.224759 2.152846 3.262909 -3.008043 4.013544 -21.364903 -2.424992 -3.383250 0.962548 0.000000 0.000000 0.000000 -0.726064 7.692934 -2.254978 14.950229 -7.571432 3.248689 -6.216179 -0.261557 1.257703 -13.643540 -10.096229 12.365915 -0.153590 -0.441346 -10.494473 0.000000 0.000000 0.000000 -1.461866 10.251801 -2.551551 3.274732 -0.675953 3.948728 -0.291867 0.483358 1.989443 0.130004 -0.053031 -0.053843 0.000000 0.000000 0.000000 0.252403 3.142202 1.638413 12.537375 2.785752 2.160440 -9.971106 -18.791008 -13.275149 0.000000 0.000000 0.000000 -0.488763 1.311808 1.082053 -1.383724 -17.522271 -14.625322 -0.750711 -0.205842 -3.995278 13.641783 -21.655183 -65.003395 0.369893 -6.150568 2.201507 0.000000 0.000000 0.000000 0.528084 1.906596 1.778610 0.246275 9.312267 14.819576 -2.269877 1.005381 1.465261 14.350318 27.617826 56.714407 -6.184735 2.676530 1.623979 0.000000 0.000000 0.000000 
1.856040 35.329868 -4.734747 0.000000 0.000000 0.000000 -1.473377 6.995228 -2.201026 -9.964334 20.128310 13.492990 14.383301 2.298621 3.259726 -3.202243 4.432032 -21.420136 -2.480687 -3.393123 0.929291 0.000000 0.000000 0.000000 -0.905041 7.298584 -2.256112 14.809814 -7.366934 3.250894 -5.977971 0.269831 1.203516 -13.654381 -10.389050 12.500908 0.239361 -0.451879 -11.214242 0.000000 0.000000 0.000000 -1.667074 9.940060 -2.577346 3.410295 -0.637032 3.942365 -0.272038 0.448052 1.991691 0.126937 -0.068526 -0.055019 0.000000 0.000000 0.000000 0.247249 3.104345 1.615298 12.491296 2.806405 2.349784 -10.052931 -18.986531 -12.884237 0.000000 0.000000 0.000000 -0.482353 1.251740 1.086615 -1.391286 -17.526764 -14.482221 -0.796089 -0.182995 -4.043101 13.635906 -21.202565 -65.033646 0.521949 -6.126939 2.297240 0.000000 0.000000 0.000000 0.511060 1.845208 1.773282 0.306773 9.496584 14.724389 -2.361366 1.073505 1.557230 15.051300 28.019550 56.151631 -6.039728 2.924353 1.473529 0.000000 0.000000 0.000000 
1.844248 35.324638 -4.736734 0.000000 0.000000 0.000000 -1.631756 6.561253 -2.199722 -9.661644 20.181971 13.498654 14.498328 2.459108 3.248515 -3.349787 4.822991 -21.482193 -2.534511 -3.404232 0.882117 0.000000 0.000000 0.000000 -1.079477 6.906430 -2.245102 14.652895 -7.153869 3.241580 -5.700337 0.876401 1.141565 -13.642038 -10.657481 12.653770 0.558826 -0.482355 -11.955058 0.000000 0.000000 0.000000 -1.868247 9.596651 -2.590771 3.550160 -0.593031 3.930492 -0.248928 0.412627 1.986226 0.125928 -0.088647 -0.058665 0.000000 0.000000 0.000000 0.236108 3.062207 1.587934 12.440852 2.823952 2.549554 -10.107455 -19.338214 -12.454754 0.000000 0.000000 0.000000 -0.481620 1.184950 1.081220 -1.399924 -17.543078 -14.326286 -0.824538 -0.184212 -4.066832 13.654123 -20.674491 -65.078978 0.661474 -6.126732 2.374723 0.000000 0.000000 0.000000 0.491781 1.779086 1.760041 0.372704 9.734859 14.627668 -2.441330 1.108046 1.680551 15.598795 28.373723 55.620573 -5.877931 3.378229 1.295900 0.000000 0.000000 0.000000 
